<svg xmlns="http://www.w3.org/2000/svg" xmlns:ns1="http://www.serif.com/" width="100%" height="100%" viewBox="0 0 1068 679" version="1.1" xml:space="preserve" style="fill-rule:evenodd;clip-rule:evenodd;stroke-linejoin:round;stroke-miterlimit:2;"><path d="M762.875,264.9c0.079,0.082 0.168,0.178 0.266,0.286c0.748,-0.178 1.435,-0.341 2.05,-0.488c0.37,-0.088 5.55,-0.56 6.223,-0.468l3.234,0.445c0.277,0.038 7.084,2.574 11.864,5.162c9.554,5.171 22.016,14.066 27.37,19.192c1.462,1.401 2.598,2.681 3.411,3.734c0.222,0.288 0.426,0.591 0.61,0.905c0,-0 2.2,3.818 2.357,4.207c4.25,10.556 19.862,64.252 24.324,80.685c2.265,8.343 0.913,15.919 -0.288,18.692c-0.221,0.513 -0.493,1.002 -0.81,1.462l-2.175,3.15c-0.547,0.793 -1.225,1.488 -2.004,2.056l-2.823,2.056c-0.283,0.205 -0.577,0.394 -0.883,0.563c-2.971,1.65 -9.54,3.98 -9.54,3.98c-0.024,0.009 -0.048,0.017 -0.072,0.025c-0.092,0.031 -0.184,0.061 -0.276,0.091c-0.042,0.013 -0.084,0.026 -0.126,0.039c-0,0 -61.265,18.556 -73.48,22.254c-1.224,0.371 -1.957,0.593 -2.087,0.632l-0.008,0.003c0,-0 -5.387,1.567 -8.942,1.673c-0.26,0.007 -0.52,0.003 -0.78,-0.013l-2.439,-0.15c-0.613,-0.038 -1.22,-0.141 -1.811,-0.309l-2.466,-0.7c-0.544,-0.155 -1.072,-0.363 -1.575,-0.622l-2.212,-1.138c-0.579,-0.297 -1.122,-0.66 -1.619,-1.081l-2.224,-1.885c-0.563,-0.477 -1.062,-1.025 -1.484,-1.63l-1.241,-1.778c-17.148,6.256 -38.501,11.23 -65.945,15.741c-4.674,6.324 -12.164,12.597 -22.835,17.907c-26.374,13.123 -76.197,23.005 -139.597,23.538c-57.421,0.483 -106.796,-7.733 -133.828,-19.44c-14.959,-6.478 -24.831,-14.326 -29.751,-21.493c-0.052,-0.076 -0.104,-0.152 -0.155,-0.228c-42.731,-7.096 -76.373,-17.49 -94.632,-28.079c-19.302,-11.195 -27.116,-25.114 -27.116,-38.39c-0,-11.113 6.403,-27.529 20.59,-37.546c17.422,-12.302 48.573,-23.545 91.855,-31.556c-33.387,-47.77 -71.45,-132.302 -69.344,-246.489c0.008,-0.449 0.033,-0.894 0.074,-1.325c-0.071,-1.362 0.014,-2.753 0.27,-4.153c1.891,-10.317 13.257,-21.847 32.143,-29.806c27.761,-11.698 84.722,-19.712 144.381,-22.917c22.49,-1.208 45.96,-1.776 69.365,-1.685c22.502,0.088 44.942,0.784 66.391,2.066c59.776,3.575 112.014,12.058 138.029,24.026c19.104,8.789 29.45,19.749 28.057,33.81c-0.046,0.457 0.022,0.905 0.04,1.341c25.999,-11.887 57.745,-14.636 82.894,1.62c11.235,7.262 20.884,19.717 26.44,35.877c11.179,32.51 6.051,86.847 -37.003,129.363c-14.79,14.605 -27.886,26.106 -41.379,35.326c0.267,0.508 0.505,0.997 0.712,1.462Zm-53.469,25.473c-14.103,5.304 -27.575,8.982 -40.587,12.317c-1.209,1.572 -2.431,2.926 -3.666,4.177c13.278,2.409 25.049,4.934 36.01,7.956c2.374,-8.843 5.708,-18.546 8.243,-24.45Zm-25.412,-67.929c13.436,-4.556 46.581,-22.29 66.099,-42.296c14.922,-15.294 23.367,-38.033 19.343,-42.933c-3.775,-4.598 -11.183,-3.489 -16.687,-0.276c-10.323,6.026 -26.598,24.723 -31.807,29.81c-14.053,13.726 -16.418,17.585 -19.373,23.256c-9.69,18.597 -17.575,32.439 -17.575,32.439Z" style="fill:#fff;"/><path d="M728.273,411.606c-18.645,8.081 -45.148,15.067 -78.625,20.447c-1.057,1.799 -2.367,3.568 -3.93,5.293c-4.046,4.577 -9.938,8.997 -17.755,12.905c-25.659,12.831 -74.175,22.232 -135.857,22.754c-55.897,0.472 -101.042,-8.381 -127.356,-19.833c-13.035,-5.672 -21.811,-12.3 -26.099,-18.575c-0.111,-0.163 -0.219,-0.325 -0.325,-0.488c-0.047,-0.073 -0.097,-0.148 -0.148,-0.225c-0.705,-0.849 -1.367,-1.709 -1.984,-2.581c-42.899,-6.921 -73.91,-16.123 -92.09,-26.718c-15.813,-9.216 -22.853,-20.212 -22.853,-31.142c-0,-9.116 5.389,-18.47 16.97,-26.688c18.577,-13.182 55.112,-24.789 102.946,-32.634c-33.724,-44.34 -78.076,-130.799 -76.022,-250.706c-0.046,-0.522 -0.069,-1.043 -0.069,-1.563l0.13,-1.385l0.006,-0.274c0.01,-0.498 0.061,-0.994 0.151,-1.484c0.005,-0.03 0.011,-0.061 0.016,-0.091c0.943,-5.01 3.919,-9.956 9.315,-14.389c5.793,-4.757 14.878,-9.21 26.714,-13.019c41.242,-13.271 118.666,-20.195 195.395,-19.897c76.506,0.298 152.285,7.801 190.88,21.314c11.387,3.987 19.828,8.672 24.858,13.583c4.918,4.801 7.174,10.077 7.216,15.46c0.096,5.754 0.097,11.473 0.006,17.154c24.61,-15.824 61.37,-23.128 87.841,-6.018c9.826,6.351 18.133,17.34 22.993,31.474c10.423,30.311 5.219,75.853 -34.924,115.494c-16.804,16.594 -32.677,29.073 -47.779,38.697c2.529,3.062 4.348,5.827 5.183,7.939c0.938,2.372 2.237,6.529 3.606,11.231c3.346,-0.822 6.261,-1.504 8.345,-2.003l3.065,-0.312l3.234,0.444c2.449,0.586 5.994,2.065 9.957,4.21c8.902,4.819 20.537,13.073 25.526,17.849c1.092,1.046 1.948,1.995 2.555,2.782l1.803,3.079c4.199,10.43 17.595,58.494 22.004,74.732c1.582,5.825 0.956,11.116 0.118,13.052l-2.175,3.15l-2.823,2.056c-2.548,1.415 -8.196,3.379 -8.196,3.379c-0.048,0.016 -0.096,0.032 -0.145,0.047c0,0 -71.635,22.908 -71.582,22.892c-0,-0 -4.038,1.227 -6.709,1.307l-2.438,-0.151l-2.466,-0.7l-2.212,-1.137l-2.224,-1.885l-1.701,-2.436c-0.443,-0.834 -0.961,-2.086 -1.642,-4.199c-0.218,-0.675 -0.453,-1.407 -0.704,-2.191Zm-373.165,-80.755c-42.573,6.22 -76.732,15.153 -97.445,25.937c-6.187,3.221 -11.063,6.528 -14.33,10.056c-2.018,2.18 -3.412,4.28 -3.412,6.599c-0,5.729 5.297,10.181 13.585,15.011c17.406,10.145 47.57,18.493 89.298,24.993l2.285,0.64l0.961,0.559c79.019,12.527 215.357,12.684 293.455,0.35c0.673,-0.275 1.382,-0.472 2.115,-0.584c34.995,-5.336 62.304,-12.269 80.734,-20.591l-13.57,-45.142c-19.654,-6.962 -45.399,-12.877 -75.452,-17.4c-3.366,2.841 -10.386,8.661 -18.522,14.812c-1.631,1.304 -3.277,2.572 -4.937,3.804c12.987,3.219 22.721,7.011 28.31,10.949c6.369,4.487 8.842,9.802 8.842,14.667l-0.302,2.957l-0.842,2.738c-0.871,2.109 -2.295,4.247 -4.409,6.281c-3.322,3.196 -8.899,6.442 -16.602,9.25c-24.482,8.924 -73.783,15.221 -130.587,15.221c-56.805,-0 -106.106,-6.297 -130.588,-15.221c-7.702,-2.808 -13.28,-6.054 -16.601,-9.25c-2.115,-2.034 -3.539,-4.172 -4.409,-6.281l-0.842,-2.738l-0.303,-2.957c0,-4.87 2.48,-10.192 8.866,-14.683c5.322,-3.743 14.389,-7.353 26.436,-10.464c-3.755,-2.826 -7.392,-5.777 -11.02,-9.026c-3.133,-2.693 -6.751,-6.195 -10.714,-10.487Zm291.191,-16.421c23.88,3.974 44.855,8.852 62.044,14.397c1.977,-10.195 6.898,-25.055 10.142,-32.31c0.949,-2.124 1.816,-3.721 2.439,-4.651l2.884,-3.019c3.089,-2.161 8.692,-4.324 14.908,-6.284c-1.139,-3.893 -2.206,-7.277 -3.001,-9.288c-0.569,-1.44 -2.157,-3.227 -4.183,-5.278c-25.09,13.263 -48.063,19.422 -69.733,24.931c-4.909,7.602 -10.082,14.78 -15.5,21.502Zm-45.191,18.715c16.989,-13.11 32.286,-30.477 45.531,-51.16c1.319,-2.061 2.618,-4.154 3.897,-6.28c2.545,-4.385 5.77,-10.297 8.962,-16.087c21.411,-41.506 35.542,-92.945 40.081,-149.409c0.139,-1.816 0.267,-3.518 0.38,-5.056c0.164,-2.353 0.312,-4.715 0.443,-7.084c-0.041,-0.699 -0.005,-1.402 0.111,-2.096c0.196,-3.838 0.348,-7.696 0.455,-11.574c-3.487,1.806 -7.505,3.557 -12.036,5.215c-36.874,13.497 -111.142,22.923 -196.701,22.923c-85.558,-0 -159.826,-9.426 -196.701,-22.923c-4.338,-1.588 -8.207,-3.26 -11.588,-4.985c3.399,114.615 50.517,194.238 80.697,228.995c0.359,0.301 0.698,0.632 1.015,0.992c4.369,4.971 8.554,9.166 12.753,12.917c0.08,0.068 0.161,0.135 0.241,0.202c65.892,55.084 157.793,35.298 183.045,26.832c9.631,-3.229 18.903,-7.694 27.772,-13.278c3.946,-2.545 7.892,-5.342 11.643,-8.144Zm-14.368,31.112c-6.224,3.149 -12.6,5.828 -19.111,8.011c-23.521,7.886 -99.602,24.183 -166.323,-7.934c-16.723,2.774 -29.791,6.176 -37.539,10.205c-0.457,0.237 -0.941,0.532 -1.408,0.838c2.014,1.201 4.93,2.798 7.73,3.818c23.275,8.485 70.19,14.093 124.194,14.093c54.004,-0 100.918,-5.608 124.193,-14.093c2.801,-1.02 5.717,-2.617 7.731,-3.818c-0.46,-0.302 -0.936,-0.592 -1.386,-0.827c-7.722,-4.022 -20.75,-7.42 -37.425,-10.193c-0.242,-0.04 -0.458,-0.073 -0.656,-0.1Zm75.84,-72.546c0.361,-0.314 0.555,-0.537 0.571,-0.554c0.151,-0.156 0.294,-0.311 0.429,-0.467l-0.831,0.756c-0.056,0.088 -0.112,0.176 -0.169,0.265Zm2.954,-4.624l-1.47,3.003c0.762,-1.02 1.216,-2.036 1.47,-3.003Zm27.488,-57.599c17.226,-7.119 45.189,-20.938 65.925,-42.191c17.106,-17.534 23.289,-36.062 22.376,-50.031c-0.462,-7.067 -2.489,-12.844 -6.42,-15.385c-4.001,-2.586 -8.987,-2.83 -14.023,-2.004c-9.287,1.525 -18.813,6.843 -25.099,12.983c-9.533,9.31 -16.919,17.249 -22.668,24.047l-0.829,0.68c-4.543,25.5 -11.048,49.628 -19.262,71.901Zm-29.899,61.369l0.12,-0.148c0.609,-0.922 1.395,-2.179 2.306,-3.679c0.008,-0.031 0.015,-0.062 0.023,-0.093l-0.023,0.018c-0.647,1.06 -1.299,2.112 -1.955,3.156c-0.032,0.056 -0.063,0.112 -0.096,0.169c-0.017,0.031 -0.05,0.076 -0.095,0.134c-0.093,0.148 -0.186,0.295 -0.28,0.443Zm80.43,9.341c-2.927,0.945 -5.537,1.952 -7.491,3.004c-1.859,4.718 -10.163,26.192 -9.919,32.564c0.343,8.954 13.52,50.3 19.39,68.537l68.605,-21.939l0.684,-0.27c-4.429,-16.268 -16.161,-58.548 -20.54,-70.309l-26.804,-17.551c-1.656,0.374 -3.661,0.81 -5.865,1.301c1.072,4.055 1.857,7.123 2.078,8.016c1.236,5.002 -1.822,10.066 -6.823,11.302c-5.002,1.236 -10.066,-1.822 -11.302,-6.823c-0.213,-0.86 -0.976,-3.874 -2.013,-7.832Zm-25.393,-188.243c-0.311,4.039 -0.67,8.581 -1.026,13.106c1.784,-1.8 3.65,-3.652 5.602,-5.558c8.784,-8.579 22.142,-15.919 35.12,-18.049c9.809,-1.611 19.388,-0.291 27.182,4.747c6.122,3.957 11.159,11.12 13.534,20.751c4.528,18.367 -0.561,47.04 -26.262,73.383c-14.782,15.15 -32.894,26.882 -48.966,35.4c3.367,2.72 7.182,5.896 10.897,9.17c15.213,-9.272 31.257,-21.572 48.314,-38.415c28.884,-28.524 37.018,-60.41 33.13,-85.005c-2.358,-14.92 -9.018,-27.054 -18.216,-32.999c-23.166,-14.974 -56.321,-4.309 -74.705,11.266c-0.412,0.349 -2.225,1.612 -3.909,2.771c-0.074,1.101 -0.164,2.368 -0.267,3.764c-0.132,1.895 -0.275,3.784 -0.428,5.668Zm-13.515,132.797c-8.627,3.77 -15.486,6.251 -19.151,7.496c-1.5,2.683 -5.616,10.03 -10.002,17.719c13.133,-3.753 26.833,-8.426 41.276,-15.487c-4.917,-4.139 -9.486,-7.73 -12.123,-9.728Zm-4.197,-184.461c-0.596,-0.694 -1.54,-1.317 -2.526,-2.075c-3.804,-2.925 -9.408,-5.516 -16.409,-7.968c-37.354,-13.078 -110.737,-19.977 -184.783,-20.264c-74.442,-0.29 -149.59,6.123 -189.602,18.999c-7.723,2.485 -14.026,5.158 -18.527,8.161c-2.27,1.514 -4.161,2.756 -4.744,4.438l-0.004,0.191c0.157,0.24 0.413,0.615 0.625,0.85c0.54,0.597 1.2,1.178 1.958,1.76c3.557,2.735 8.831,5.253 15.512,7.698c35.663,13.054 107.536,21.786 190.283,21.786c82.748,-0 154.621,-8.732 190.284,-21.786c6.68,-2.445 11.954,-4.963 15.512,-7.698c0.758,-0.582 1.418,-1.163 1.958,-1.76c0.23,-0.255 0.511,-0.673 0.662,-0.907c-0.104,-0.476 -0.17,-0.952 -0.199,-1.425Zm-323.737,377.079c6.878,2.719 14.647,5.055 23.075,7.051c39.621,9.379 93.337,11.057 139.984,6.618c26.621,-2.533 50.924,-7.024 68.824,-13.343c-69.084,6.875 -162.411,6.751 -231.883,-0.326Zm274.903,-17.391c-0.637,-1.497 -1.33,-2.234 -1.788,-2.613c0.103,0.106 0.203,0.215 0.301,0.326c0.25,0.283 0.48,0.578 0.691,0.884l0.102,0.113l0.078,0.159c0.232,0.364 0.438,0.742 0.616,1.131Z" style="fill:#0e2841;;stroke:#0e2841;stroke-width:1"/><g><path d="M690.108,173.361c0,-0 -2.81,12.905 -6.248,24.764c-2.502,8.632 -7.851,23.64 -7.851,23.64c-0,0 -36.155,11.221 -92.072,15.479c-44.795,3.411 -132.432,2.098 -132.432,2.098l-0,-44.169c-0,0 94.007,1.677 138.77,-2.477c48.273,-4.479 99.833,-19.335 99.833,-19.335Z" style="fill:#ff0500;"/><path d="M700.976,84.407c-0,-0 -0.515,15.618 -1.205,24.34c-0.677,8.553 -2.357,22.789 -2.357,22.789c0,-0 -16.824,6.466 -49.231,12.788c-18.618,3.633 -43.476,5.672 -70.149,7.443c-49.246,3.268 -126.529,2.631 -126.529,2.631l-0.017,-42.568c0,-0 30.206,0.585 59.329,0.271c24.43,-0.264 52.073,-1.654 73.617,-3.397c21.349,-1.726 45.296,-4.833 65.372,-8.753c35.126,-6.859 51.17,-15.544 51.17,-15.544Z" style="fill:#ff0500;"/><path d="M656.19,266.214c-0,0 -6.674,11.139 -14.542,23.484c-6.071,9.528 -20.637,25.411 -20.637,25.411c0,-0 -41.272,5.487 -72.73,6.24c-34.401,0.823 -96.606,0.455 -96.606,0.455l0.086,-42.321c0,0 70.674,1.07 102.64,-0.651c55.601,-2.994 101.789,-12.618 101.789,-12.618Z" style="fill:#ff0500;"/><path d="M451.503,111.827l0.249,209.89c0,-0 -24.988,-1.751 -44.123,-2.731c-15.731,-0.806 -41.152,-3.066 -41.152,-3.066c0,-0 -15.205,-16.224 -31.397,-43.639c-9.169,-15.525 -18.368,-34.852 -26.01,-56.323c-4.111,-11.554 -7.625,-22.121 -10.506,-32.59c-16.108,-58.54 -14.594,-98.757 -14.594,-98.757c-0,0 23.408,13.412 88.508,20.98c45.972,5.344 79.025,6.236 79.025,6.236Z" style="fill:#002f62;"/><clipPath id="_clip1"><path d="M451.503,111.827l0.249,209.89c0,-0 -24.988,-1.751 -44.123,-2.731c-15.731,-0.806 -41.152,-3.066 -41.152,-3.066c0,-0 -15.205,-16.224 -31.397,-43.639c-9.169,-15.525 -18.368,-34.852 -26.01,-56.323c-4.111,-11.554 -7.625,-22.121 -10.506,-32.59c-16.108,-58.54 -14.594,-98.757 -14.594,-98.757c-0,0 23.408,13.412 88.508,20.98c45.972,5.344 79.025,6.236 79.025,6.236Z"/></clipPath><g clip-path="url(#_clip1)"><path d="M335.423,118.637l6.741,20.745l21.813,0l-17.647,12.821l6.74,20.746l-17.647,-12.822l-17.647,12.822l6.741,-20.746l-17.647,-12.821l21.813,0l6.74,-20.745Zm67.131,21.402l6.741,20.745l21.813,-0l-17.647,12.821l6.74,20.745l-17.647,-12.821l-17.647,12.821l6.741,-20.745l-17.647,-12.821l21.813,-0l6.74,-20.745Zm3.388,80.372l6.74,20.745l21.813,0l-17.647,12.821l6.74,20.746l-17.646,-12.822l-17.647,12.822l6.74,-20.746l-17.647,-12.821l21.813,0l6.741,-20.745Zm-53.12,-34.951l6.741,20.745l21.812,-0l-17.647,12.821l6.741,20.745l-17.647,-12.821l-17.647,12.821l6.741,-20.745l-17.647,-12.821l21.812,-0l6.741,-20.745Z" style="fill:#fff;"/></g></g><g id="FULL-COLOUR-VERTICAL" ns1:id="FULL COLOUR VERTICAL"><g><path d="M97.155,553.969l-0,24.006l-33.28,0l0,99.003l-30.596,0l0,-99.003l-33.279,0l0,-24.006l97.155,0Z" style="fill:#0E2841;fill-rule:nonzero;"/><path d="M106.458,627.915c0,-10.047 1.939,-18.866 5.815,-26.459c3.877,-7.594 9.155,-13.435 15.835,-17.523c6.68,-4.089 14.135,-6.133 22.365,-6.133c7.038,-0 13.211,1.402 18.519,4.205c5.308,2.804 9.393,6.484 12.256,11.04l-0,-13.843l30.595,-0l0,97.776l-30.595,0l-0,-13.843c-2.982,4.556 -7.127,8.236 -12.435,11.04c-5.308,2.803 -11.481,4.205 -18.519,4.205c-8.111,0 -15.506,-2.073 -22.186,-6.22c-6.68,-4.148 -11.958,-10.047 -15.835,-17.698c-3.876,-7.652 -5.815,-16.501 -5.815,-26.547Zm74.79,0.175c-0,-7.476 -2.117,-13.376 -6.352,-17.698c-4.234,-4.322 -9.393,-6.483 -15.477,-6.483c-6.083,-0 -11.242,2.132 -15.476,6.395c-4.235,4.264 -6.352,10.134 -6.352,17.611c-0,7.476 2.117,13.405 6.352,17.785c4.234,4.381 9.393,6.571 15.476,6.571c6.084,0 11.243,-2.161 15.477,-6.483c4.235,-4.322 6.352,-10.222 6.352,-17.698Z" style="fill:#0E2841;fill-rule:nonzero;"/><path d="M264.625,595.498c3.579,-5.374 8.052,-9.608 13.42,-12.704c5.367,-3.096 11.331,-4.644 17.892,-4.644l-0,31.716l-8.41,0c-7.634,0 -13.359,1.607 -17.176,4.819c-3.817,3.213 -5.726,8.849 -5.726,16.91l0,45.383l-30.595,0l-0,-97.776l30.595,-0l0,16.296Z" style="fill:#0E2841;fill-rule:nonzero;"/><path d="M325.996,569.039c-5.368,-0 -9.752,-1.548 -13.151,-4.644c-3.4,-3.096 -5.099,-6.921 -5.099,-11.477c-0,-4.673 1.699,-8.557 5.099,-11.653c3.399,-3.096 7.783,-4.643 13.151,-4.643c5.248,-0 9.572,1.547 12.971,4.643c3.4,3.096 5.1,6.98 5.1,11.653c-0,4.556 -1.7,8.381 -5.1,11.477c-3.399,3.096 -7.723,4.644 -12.971,4.644Zm15.208,10.163l-0,97.776l-30.596,0l0,-97.776l30.596,-0Z" style="fill:#0E2841;fill-rule:nonzero;"/><path d="M413.488,604.084l-16.46,-0l-0,72.894l-30.596,0l-0,-72.894l-11.093,-0l-0,-24.882l11.093,-0l-0,-2.804c-0,-12.032 3.519,-21.173 10.556,-27.423c7.038,-6.25 17.356,-9.375 30.954,-9.375c2.266,0 3.936,0.059 5.01,0.176l-0,25.232c-5.845,0 -9.96,0.968 -12.346,2.903c-2.386,1.934 -3.578,5.406 -3.578,10.415l-0,0.876l16.46,-0l0,24.882Z" style="fill:#0E2841;fill-rule:nonzero;"/><path d="M477.9,604.084l-16.461,-0l0,72.894l-30.595,0l-0,-72.894l-11.093,-0l-0,-24.882l11.093,-0l-0,-2.804c-0,-12.032 3.519,-21.173 10.556,-27.423c7.038,-6.25 17.356,-9.375 30.954,-9.375c2.266,0 3.936,0.059 5.009,0.176l0,25.232c-5.844,0 -9.96,0.968 -12.345,2.903c-2.386,1.934 -3.579,5.406 -3.579,10.415l0,0.876l16.461,-0l0,24.882Z" style="fill:#0E2841;fill-rule:nonzero;"/><path d="M575.505,678.205c-9.202,-0 -17.448,-1.46 -24.739,-4.381c-7.289,-2.92 -13.115,-7.243 -17.478,-12.967c-4.361,-5.724 -6.542,-12.616 -6.542,-20.676l32.385,-0c0.477,4.556 2.087,8.031 4.831,10.426c2.743,2.394 6.322,3.592 10.735,3.592c4.533,-0 8.111,-1.022 10.735,-3.067c2.624,-2.044 3.937,-4.877 3.937,-8.498c-0,-3.037 -1.044,-5.549 -3.132,-7.535c-2.087,-1.986 -4.652,-3.621 -7.693,-4.906c-3.042,-1.285 -7.366,-2.746 -12.972,-4.381c-8.111,-2.453 -14.731,-4.906 -19.86,-7.359c-5.129,-2.454 -9.543,-6.075 -13.241,-10.865c-3.697,-4.789 -5.546,-11.039 -5.546,-18.749c-0,-11.448 4.234,-20.414 12.703,-26.897c8.469,-6.483 19.503,-9.725 33.101,-9.725c13.836,-0 24.989,3.242 33.458,9.725c8.469,6.483 13.002,15.507 13.598,27.072l-33.279,0c-0,-3.971 -1.381,-7.096 -4.143,-9.374c-2.761,-2.278 -6.303,-3.417 -10.627,-3.417c-3.722,-0 -6.723,0.964 -9.004,2.891c-2.282,1.928 -3.422,4.702 -3.422,8.323c-0,3.972 1.908,7.068 5.725,9.287c3.817,2.22 9.781,4.615 17.892,7.185c8.111,2.687 14.702,5.257 19.771,7.71c5.07,2.453 9.453,6.016 13.151,10.689c3.698,4.672 5.547,10.688 5.547,18.048c-0,7.009 -1.823,13.376 -5.469,19.1c-3.643,5.724 -8.931,10.28 -15.862,13.667c-6.932,3.388 -15.118,5.082 -24.56,5.082Z" style="fill:#0E2841;fill-rule:nonzero;"/><path d="M685.629,678.38c-9.782,0 -18.579,-2.044 -26.391,-6.133c-7.813,-4.088 -13.956,-9.929 -18.429,-17.523c-4.473,-7.593 -6.71,-16.471 -6.71,-26.634c0,-10.046 2.266,-18.895 6.799,-26.547c4.533,-7.651 10.735,-13.522 18.608,-17.61c7.872,-4.089 16.699,-6.133 26.48,-6.133c9.781,-0 18.608,2.044 26.481,6.133c7.872,4.088 14.075,9.959 18.608,17.61c4.532,7.652 6.799,16.501 6.799,26.547c-0,10.046 -2.296,18.895 -6.889,26.547c-4.592,7.651 -10.854,13.522 -18.787,17.61c-7.932,4.089 -16.788,6.133 -26.569,6.133Zm-0,-25.933c5.844,-0 10.824,-2.103 14.939,-6.309c4.116,-4.205 6.173,-10.221 6.173,-18.048c0,-7.827 -1.998,-13.843 -5.994,-18.048c-3.996,-4.206 -8.916,-6.309 -14.761,-6.309c-5.964,0 -10.914,2.074 -14.85,6.221c-3.936,4.147 -5.905,10.192 -5.905,18.136c0,7.827 1.939,13.843 5.815,18.048c3.877,4.206 8.738,6.309 14.583,6.309Z" style="fill:#0E2841;fill-rule:nonzero;"/><path d="M748.072,628.09c0,-10.163 2.117,-19.041 6.352,-26.634c4.234,-7.594 10.139,-13.435 17.713,-17.523c7.575,-4.089 16.252,-6.133 26.033,-6.133c12.525,-0 22.992,3.212 31.401,9.637c8.409,6.425 13.926,15.479 16.55,27.161l-32.563,-0c-2.744,-7.477 -8.052,-11.215 -15.924,-11.215c-5.607,0 -10.08,2.132 -13.42,6.396c-3.339,4.264 -5.009,10.367 -5.009,18.311c-0,7.944 1.67,14.047 5.009,18.311c3.34,4.264 7.813,6.396 13.42,6.396c7.872,-0 13.18,-3.738 15.924,-11.215l32.563,0c-2.624,11.449 -8.17,20.444 -16.639,26.985c-8.469,6.542 -18.906,9.813 -31.312,9.813c-9.781,0 -18.458,-2.044 -26.033,-6.133c-7.574,-4.088 -13.479,-9.929 -17.713,-17.523c-4.235,-7.593 -6.352,-16.471 -6.352,-26.634Z" style="fill:#0E2841;fill-rule:nonzero;"/><path d="M877.791,569.039c-5.368,-0 -9.752,-1.548 -13.151,-4.644c-3.4,-3.096 -5.099,-6.921 -5.099,-11.477c-0,-4.673 1.699,-8.557 5.099,-11.653c3.399,-3.096 7.783,-4.643 13.151,-4.643c5.248,-0 9.572,1.547 12.971,4.643c3.4,3.096 5.1,6.98 5.1,11.653c-0,4.556 -1.7,8.381 -5.1,11.477c-3.399,3.096 -7.723,4.644 -12.971,4.644Zm15.208,10.163l-0,97.776l-30.596,0l0,-97.776l30.596,-0Z" style="fill:#0E2841;fill-rule:nonzero;"/><path d="M909.102,627.915c-0,-10.047 1.938,-18.866 5.815,-26.459c3.876,-7.594 9.155,-13.435 15.834,-17.523c6.68,-4.089 14.135,-6.133 22.366,-6.133c7.037,-0 13.21,1.402 18.518,4.205c5.308,2.804 9.393,6.484 12.256,11.04l0,-13.843l30.596,-0l-0,97.776l-30.596,0l0,-13.843c-2.982,4.556 -7.127,8.236 -12.435,11.04c-5.308,2.803 -11.481,4.205 -18.518,4.205c-8.111,0 -15.507,-2.073 -22.187,-6.22c-6.679,-4.148 -11.958,-10.047 -15.834,-17.698c-3.877,-7.652 -5.815,-16.501 -5.815,-26.547Zm74.789,0.175c0,-7.476 -2.117,-13.376 -6.352,-17.698c-4.234,-4.322 -9.393,-6.483 -15.476,-6.483c-6.084,-0 -11.243,2.132 -15.477,6.395c-4.234,4.264 -6.352,10.134 -6.352,17.611c0,7.476 2.118,13.405 6.352,17.785c4.234,4.381 9.393,6.571 15.477,6.571c6.083,0 11.242,-2.161 15.476,-6.483c4.235,-4.322 6.352,-10.222 6.352,-17.698Z" style="fill:#0E2841;fill-rule:nonzero;"/><rect x="1036.67" y="547.31" width="30.596" height="129.668" style="fill:#0E2841;fill-rule:nonzero;"/></g></g></svg>