<svg height="100%" style="fill-rule:evenodd;clip-rule:evenodd;stroke-linejoin:round;stroke-miterlimit:2;" version="1.1" viewBox="0 0 2589 484" width="100%" xml:space="preserve" xmlns="http://www.w3.org/2000/svg"><g id="tARNSPARENt"><path d="M553.516,264.9c0.078,0.082 0.167,0.178 0.265,0.286c0.749,-0.178 1.435,-0.341 2.05,-0.488c0.37,-0.088 5.55,-0.56 6.223,-0.468l3.234,0.445c0.277,0.038 7.084,2.574 11.864,5.162c9.554,5.171 22.016,14.066 27.37,19.192c1.462,1.401 2.598,2.681 3.411,3.734c0.222,0.288 0.426,0.591 0.61,0.905c0,-0 2.2,3.818 2.357,4.207c4.25,10.556 19.862,64.252 24.324,80.685c2.265,8.343 0.913,15.919 -0.287,18.692c-0.222,0.513 -0.494,1.002 -0.811,1.462l-2.175,3.15c-0.547,0.793 -1.225,1.488 -2.004,2.056l-2.823,2.056c-0.282,0.205 -0.577,0.394 -0.883,0.563c-2.971,1.65 -9.54,3.98 -9.54,3.98c-0.024,0.009 -0.048,0.017 -0.072,0.025c-0.092,0.031 -0.184,0.061 -0.276,0.091c-0.042,0.013 -0.084,0.026 -0.126,0.039c-0,0 -61.265,18.556 -73.48,22.254c-1.224,0.371 -1.957,0.593 -2.087,0.632l-0.008,0.003c0,-0 -5.387,1.567 -8.941,1.673c-0.261,0.007 -0.521,0.003 -0.781,-0.013l-2.439,-0.15c-0.612,-0.038 -1.22,-0.141 -1.81,-0.309l-2.466,-0.7c-0.545,-0.155 -1.073,-0.363 -1.576,-0.622l-2.212,-1.138c-0.579,-0.297 -1.122,-0.66 -1.619,-1.081l-2.223,-1.885c-0.564,-0.477 -1.063,-1.025 -1.485,-1.63l-1.241,-1.778c-17.147,6.256 -38.501,11.23 -65.945,15.741c-4.673,6.324 -12.163,12.597 -22.835,17.907c-26.374,13.123 -76.197,23.005 -139.597,23.538c-57.421,0.483 -106.796,-7.733 -133.828,-19.44c-14.959,-6.478 -24.831,-14.326 -29.751,-21.493c-0.052,-0.076 -0.104,-0.152 -0.155,-0.228c-42.731,-7.096 -76.373,-17.49 -94.631,-28.079c-19.303,-11.195 -27.117,-25.114 -27.117,-38.39c0,-11.113 6.403,-27.529 20.591,-37.546c17.421,-12.302 48.572,-23.545 91.854,-31.556c-33.387,-47.77 -71.45,-132.302 -69.344,-246.489c0.008,-0.449 0.033,-0.894 0.074,-1.325c-0.071,-1.362 0.014,-2.753 0.271,-4.153c1.89,-10.317 13.257,-21.847 32.143,-29.806c27.76,-11.698 84.721,-19.712 144.38,-22.917c22.49,-1.208 45.96,-1.776 69.365,-1.685c22.502,0.088 44.942,0.784 66.391,2.066c59.777,3.575 112.014,12.058 138.029,24.026c19.105,8.789 29.45,19.749 28.057,33.81c-0.046,0.457 0.022,0.905 0.04,1.341c25.999,-11.887 57.745,-14.636 82.895,1.62c11.235,7.262 20.883,19.717 26.439,35.877c11.179,32.51 6.051,86.847 -37.003,129.363c-14.79,14.605 -27.885,26.106 -41.379,35.326c0.267,0.508 0.505,0.997 0.713,1.462Zm-53.469,25.473c-14.103,5.304 -27.575,8.982 -40.588,12.317c-1.209,1.572 -2.431,2.926 -3.666,4.177c13.278,2.409 25.049,4.934 36.01,7.956c2.374,-8.843 5.708,-18.546 8.244,-24.45Zm-25.413,-67.929c13.436,-4.556 46.581,-22.29 66.099,-42.296c14.922,-15.294 23.367,-38.033 19.343,-42.933c-3.775,-4.598 -11.183,-3.489 -16.687,-0.276c-10.323,6.026 -26.598,24.723 -31.807,29.81c-14.053,13.726 -16.418,17.585 -19.373,23.256c-9.69,18.597 -17.575,32.439 -17.575,32.439Z" style="fill:#fff;"/><path d="M518.914,411.606c-18.646,8.081 -45.149,15.067 -78.626,20.447c-1.057,1.799 -2.367,3.568 -3.929,5.293c-4.047,4.577 -9.939,8.997 -17.755,12.905c-25.66,12.831 -74.176,22.232 -135.858,22.754c-55.896,0.472 -101.042,-8.381 -127.356,-19.833c-13.035,-5.672 -21.811,-12.3 -26.099,-18.575c-0.111,-0.163 -0.219,-0.325 -0.325,-0.488c-0.047,-0.073 -0.097,-0.148 -0.148,-0.225c-0.705,-0.849 -1.367,-1.709 -1.984,-2.581c-42.899,-6.921 -73.91,-16.123 -92.089,-26.718c-15.814,-9.216 -22.854,-20.212 -22.854,-31.142c-0,-9.116 5.389,-18.47 16.97,-26.688c18.577,-13.182 55.112,-24.789 102.946,-32.634c-33.724,-44.34 -78.076,-130.799 -76.021,-250.706c-0.047,-0.522 -0.07,-1.043 -0.07,-1.563l0.13,-1.385l0.006,-0.274c0.01,-0.498 0.061,-0.994 0.151,-1.484c0.005,-0.03 0.011,-0.061 0.016,-0.091c0.943,-5.01 3.919,-9.956 9.315,-14.389c5.793,-4.757 14.878,-9.21 26.714,-13.019c41.242,-13.271 118.666,-20.195 195.395,-19.897c76.506,0.298 152.285,7.801 190.88,21.314c11.387,3.987 19.828,8.672 24.858,13.583c4.918,4.801 7.174,10.077 7.216,15.46c0.096,5.754 0.098,11.473 0.006,17.154c24.61,-15.824 61.37,-23.128 87.841,-6.018c9.826,6.351 18.134,17.34 22.993,31.474c10.423,30.311 5.219,75.853 -34.924,115.494c-16.803,16.594 -32.677,29.073 -47.779,38.697c2.529,3.062 4.348,5.827 5.183,7.939c0.938,2.372 2.237,6.529 3.606,11.231c3.346,-0.822 6.261,-1.504 8.345,-2.003l3.065,-0.312l3.234,0.444c2.449,0.586 5.994,2.065 9.957,4.21c8.902,4.819 20.537,13.073 25.526,17.849c1.092,1.046 1.948,1.995 2.555,2.782l1.803,3.079c4.2,10.43 17.595,58.494 22.004,74.732c1.582,5.825 0.956,11.116 0.118,13.052l-2.175,3.15l-2.823,2.056c-2.548,1.415 -8.196,3.379 -8.196,3.379c-0.048,0.016 -0.096,0.032 -0.144,0.047c-0,0 -71.636,22.908 -71.583,22.892c-0,-0 -4.038,1.227 -6.709,1.307l-2.438,-0.151l-2.466,-0.7l-2.212,-1.137l-2.224,-1.885l-1.7,-2.436c-0.444,-0.834 -0.962,-2.086 -1.643,-4.199c-0.218,-0.675 -0.453,-1.407 -0.703,-2.191Zm-373.166,-80.755c-42.573,6.22 -76.732,15.153 -97.445,25.937c-6.187,3.221 -11.063,6.528 -14.33,10.056c-2.018,2.18 -3.412,4.28 -3.412,6.599c0,5.729 5.297,10.181 13.585,15.011c17.406,10.145 47.57,18.493 89.299,24.993l2.284,0.64l0.961,0.559c79.019,12.527 215.357,12.684 293.455,0.35c0.673,-0.275 1.382,-0.472 2.115,-0.584c34.995,-5.336 62.304,-12.269 80.734,-20.591l-13.57,-45.142c-19.654,-6.962 -45.399,-12.877 -75.452,-17.4c-3.366,2.841 -10.386,8.661 -18.521,14.812c-1.632,1.304 -3.278,2.572 -4.938,3.804c12.988,3.219 22.721,7.011 28.31,10.949c6.369,4.487 8.842,9.802 8.842,14.667l-0.302,2.957l-0.842,2.738c-0.871,2.109 -2.294,4.247 -4.409,6.281c-3.322,3.196 -8.899,6.442 -16.601,9.25c-24.482,8.924 -73.784,15.221 -130.588,15.221c-56.804,-0 -106.106,-6.297 -130.588,-15.221c-7.702,-2.808 -13.279,-6.054 -16.601,-9.25c-2.115,-2.034 -3.539,-4.172 -4.409,-6.281l-0.842,-2.738l-0.303,-2.957c0,-4.87 2.48,-10.192 8.866,-14.683c5.322,-3.743 14.389,-7.353 26.436,-10.464c-3.755,-2.826 -7.392,-5.777 -11.019,-9.026c-3.134,-2.693 -6.752,-6.195 -10.715,-10.487Zm291.191,-16.421c23.88,3.974 44.856,8.852 62.044,14.397c1.977,-10.195 6.899,-25.055 10.142,-32.31c0.949,-2.124 1.817,-3.721 2.439,-4.651l2.884,-3.019c3.089,-2.161 8.692,-4.324 14.908,-6.284c-1.139,-3.893 -2.205,-7.277 -3.001,-9.288c-0.569,-1.44 -2.157,-3.227 -4.183,-5.278c-25.09,13.263 -48.062,19.422 -69.733,24.931c-4.909,7.602 -10.082,14.78 -15.5,21.502Zm-45.191,18.715c16.989,-13.11 32.287,-30.477 45.531,-51.16c1.319,-2.061 2.619,-4.154 3.897,-6.28c2.545,-4.385 5.77,-10.297 8.962,-16.087c21.411,-41.506 35.542,-92.945 40.081,-149.409c0.139,-1.816 0.267,-3.518 0.38,-5.056c0.164,-2.353 0.312,-4.715 0.443,-7.084c-0.041,-0.699 -0.004,-1.402 0.111,-2.096c0.196,-3.838 0.348,-7.696 0.455,-11.574c-3.486,1.806 -7.505,3.557 -12.035,5.215c-36.875,13.497 -111.143,22.923 -196.701,22.923c-85.559,-0 -159.827,-9.426 -196.701,-22.923c-4.339,-1.588 -8.207,-3.26 -11.589,-4.985c3.399,114.615 50.517,194.238 80.697,228.995c0.359,0.301 0.699,0.632 1.015,0.992c4.369,4.971 8.555,9.166 12.753,12.917c0.081,0.068 0.161,0.135 0.241,0.202c65.892,55.084 157.794,35.298 183.046,26.832c9.63,-3.229 18.902,-7.694 27.772,-13.278c3.945,-2.545 7.891,-5.342 11.642,-8.144Zm-14.368,31.112c-6.224,3.149 -12.6,5.828 -19.111,8.011c-23.521,7.886 -99.602,24.183 -166.323,-7.934c-16.723,2.774 -29.791,6.176 -37.539,10.205c-0.457,0.237 -0.941,0.532 -1.408,0.838c2.015,1.201 4.93,2.798 7.73,3.818c23.275,8.485 70.19,14.093 124.194,14.093c54.004,-0 100.918,-5.608 124.193,-14.093c2.801,-1.02 5.717,-2.617 7.731,-3.818c-0.459,-0.302 -0.935,-0.592 -1.386,-0.827c-7.722,-4.022 -20.75,-7.42 -37.425,-10.193c-0.242,-0.04 -0.458,-0.073 -0.656,-0.1Zm75.84,-72.546c0.362,-0.314 0.555,-0.537 0.571,-0.554c0.151,-0.156 0.294,-0.311 0.429,-0.467l-0.83,0.756c-0.057,0.088 -0.113,0.176 -0.17,0.265Zm2.954,-4.624l-1.47,3.003c0.762,-1.02 1.216,-2.036 1.47,-3.003Zm27.488,-57.599c17.226,-7.119 45.189,-20.938 65.925,-42.191c17.106,-17.534 23.289,-36.062 22.376,-50.031c-0.462,-7.067 -2.489,-12.844 -6.42,-15.385c-4.001,-2.586 -8.987,-2.83 -14.023,-2.004c-9.287,1.525 -18.813,6.843 -25.099,12.983c-9.533,9.31 -16.918,17.249 -22.668,24.047l-0.829,0.68c-4.543,25.5 -11.048,49.628 -19.262,71.901Zm-29.899,61.369l0.12,-0.148c0.61,-0.922 1.395,-2.179 2.306,-3.679c0.008,-0.031 0.015,-0.062 0.023,-0.093l-0.023,0.018c-0.647,1.06 -1.299,2.112 -1.955,3.156c-0.031,0.056 -0.063,0.112 -0.096,0.169c-0.017,0.031 -0.05,0.076 -0.095,0.134c-0.093,0.148 -0.186,0.295 -0.28,0.443Zm80.43,9.341c-2.927,0.945 -5.537,1.952 -7.491,3.004c-1.858,4.718 -10.163,26.192 -9.919,32.564c0.343,8.954 13.521,50.3 19.39,68.537l68.605,-21.939l0.685,-0.27c-4.43,-16.268 -16.162,-58.548 -20.541,-70.309l-26.804,-17.551c-1.656,0.374 -3.661,0.81 -5.864,1.301c1.071,4.055 1.856,7.123 2.077,8.016c1.236,5.002 -1.822,10.066 -6.823,11.302c-5.002,1.236 -10.066,-1.822 -11.302,-6.823c-0.212,-0.86 -0.976,-3.874 -2.013,-7.832Zm-25.393,-188.243c-0.311,4.039 -0.67,8.581 -1.026,13.106c1.784,-1.8 3.65,-3.652 5.602,-5.558c8.784,-8.579 22.142,-15.919 35.12,-18.049c9.809,-1.611 19.388,-0.291 27.182,4.747c6.122,3.957 11.159,11.12 13.534,20.751c4.528,18.367 -0.561,47.04 -26.262,73.383c-14.781,15.15 -32.894,26.882 -48.966,35.4c3.368,2.72 7.182,5.896 10.897,9.17c15.214,-9.272 31.257,-21.572 48.314,-38.415c28.884,-28.524 37.018,-60.41 33.131,-85.005c-2.359,-14.92 -9.019,-27.054 -18.217,-32.999c-23.165,-14.974 -56.321,-4.309 -74.705,11.266c-0.411,0.349 -2.225,1.612 -3.908,2.771c-0.075,1.101 -0.165,2.368 -0.268,3.764c-0.132,1.895 -0.275,3.784 -0.428,5.668Zm-13.514,132.797c-8.628,3.77 -15.487,6.251 -19.152,7.496c-1.5,2.683 -5.616,10.03 -10.002,17.719c13.134,-3.753 26.833,-8.426 41.277,-15.487c-4.918,-4.139 -9.487,-7.73 -12.123,-9.728Zm-4.198,-184.461c-0.596,-0.694 -1.54,-1.317 -2.525,-2.075c-3.805,-2.925 -9.409,-5.516 -16.41,-7.968c-37.354,-13.078 -110.737,-19.977 -184.782,-20.264c-74.443,-0.29 -149.591,6.123 -189.603,18.999c-7.723,2.485 -14.026,5.158 -18.527,8.161c-2.269,1.514 -4.161,2.756 -4.744,4.438l-0.004,0.191c0.157,0.24 0.413,0.615 0.625,0.85c0.54,0.597 1.2,1.178 1.958,1.76c3.558,2.735 8.832,5.253 15.512,7.698c35.663,13.054 107.536,21.786 190.284,21.786c82.747,-0 154.62,-8.732 190.283,-21.786c6.681,-2.445 11.955,-4.963 15.512,-7.698c0.758,-0.582 1.418,-1.163 1.958,-1.76c0.23,-0.255 0.511,-0.673 0.663,-0.907c-0.105,-0.476 -0.17,-0.952 -0.2,-1.425Zm-323.737,377.079c6.878,2.719 14.647,5.055 23.075,7.051c39.621,9.379 93.337,11.057 139.984,6.618c26.621,-2.533 50.924,-7.024 68.824,-13.343c-69.084,6.875 -162.41,6.751 -231.883,-0.326Zm274.903,-17.391c-0.637,-1.497 -1.33,-2.234 -1.788,-2.613c0.103,0.106 0.203,0.215 0.302,0.326c0.249,0.283 0.479,0.578 0.69,0.884l0.102,0.113l0.078,0.159c0.232,0.364 0.438,0.742 0.616,1.131Z" style="fill:#0e2841;;stroke:#0e2841;stroke-width:1"/><g><path d="M480.748,173.361c0,-0 -2.809,12.905 -6.248,24.764c-2.502,8.632 -7.851,23.64 -7.851,23.64c-0,0 -36.155,11.221 -92.072,15.479c-44.794,3.411 -132.432,2.098 -132.432,2.098l0,-44.169c0,0 94.007,1.677 138.77,-2.477c48.273,-4.479 99.833,-19.335 99.833,-19.335Z" style="fill:#ff0500;"/><path d="M491.616,84.407c-0,-0 -0.515,15.618 -1.205,24.34c-0.677,8.553 -2.357,22.789 -2.357,22.789c0,-0 -16.824,6.466 -49.231,12.788c-18.618,3.633 -43.476,5.672 -70.148,7.443c-49.246,3.268 -126.53,2.631 -126.53,2.631l-0.017,-42.568c0,-0 30.206,0.585 59.329,0.271c24.43,-0.264 52.073,-1.654 73.617,-3.397c21.349,-1.726 45.296,-4.833 65.372,-8.753c35.126,-6.859 51.17,-15.544 51.17,-15.544Z" style="fill:#ff0500;"/><path d="M446.83,266.214c-0,0 -6.674,11.139 -14.541,23.484c-6.072,9.528 -20.637,25.411 -20.637,25.411c-0,-0 -41.273,5.487 -72.731,6.24c-34.401,0.823 -96.606,0.455 -96.606,0.455l0.086,-42.321c0,0 70.674,1.07 102.64,-0.651c55.601,-2.994 101.789,-12.618 101.789,-12.618Z" style="fill:#ff0500;"/><path d="M242.143,111.827l0.249,209.89c0,-0 -24.988,-1.751 -44.123,-2.731c-15.73,-0.806 -41.151,-3.066 -41.151,-3.066c-0,-0 -15.206,-16.224 -31.398,-43.639c-9.169,-15.525 -18.368,-34.852 -26.01,-56.323c-4.111,-11.554 -7.625,-22.121 -10.506,-32.59c-16.108,-58.54 -14.594,-98.757 -14.594,-98.757c-0,0 23.408,13.412 88.508,20.98c45.972,5.344 79.025,6.236 79.025,6.236Z" style="fill:#002f62;"/><clipPath id="_clip1"><path d="M242.143,111.827l0.249,209.89c0,-0 -24.988,-1.751 -44.123,-2.731c-15.73,-0.806 -41.151,-3.066 -41.151,-3.066c-0,-0 -15.206,-16.224 -31.398,-43.639c-9.169,-15.525 -18.368,-34.852 -26.01,-56.323c-4.111,-11.554 -7.625,-22.121 -10.506,-32.59c-16.108,-58.54 -14.594,-98.757 -14.594,-98.757c-0,0 23.408,13.412 88.508,20.98c45.972,5.344 79.025,6.236 79.025,6.236Z"/></clipPath><g clip-path="url(#_clip1)"><path d="M126.064,118.637l6.74,20.745l21.813,0l-17.647,12.821l6.741,20.746l-17.647,-12.822l-17.647,12.822l6.74,-20.746l-17.647,-12.821l21.813,0l6.741,-20.745Zm67.13,21.402l6.741,20.745l21.813,-0l-17.647,12.821l6.74,20.745l-17.647,-12.821l-17.647,12.821l6.741,-20.745l-17.647,-12.821l21.813,-0l6.74,-20.745Zm3.388,80.372l6.74,20.745l21.813,0l-17.647,12.821l6.741,20.746l-17.647,-12.822l-17.647,12.822l6.74,-20.746l-17.647,-12.821l21.813,0l6.741,-20.745Zm-53.12,-34.951l6.741,20.745l21.813,-0l-17.647,12.821l6.74,20.745l-17.647,-12.821l-17.647,12.821l6.741,-20.745l-17.647,-12.821l21.813,-0l6.74,-20.745Z" style="fill:#fff;"/></g></g><g transform="translate(-60.0,-5.0)"><path d="M921.137,154.645l0,41.249l-57.183,0l-0,170.115l-52.572,-0l-0,-170.115l-57.183,0l-0,-41.249l166.938,-0Z" style="fill:#fff;fill-rule:nonzero;"/><path d="M937.124,281.704c-0,-17.262 3.33,-32.417 9.992,-45.464c6.661,-13.047 15.73,-23.084 27.208,-30.109c11.477,-7.025 24.287,-10.538 38.429,-10.538c12.093,-0 22.7,2.409 31.82,7.226c9.121,4.817 16.141,11.14 21.06,18.969l-0,-23.786l52.571,-0l0,168.007l-52.571,-0l-0,-23.786c-5.124,7.828 -12.247,14.151 -21.367,18.968c-9.121,4.818 -19.727,7.227 -31.82,7.227c-13.937,-0 -26.645,-3.563 -38.122,-10.689c-11.478,-7.126 -20.547,-17.262 -27.208,-30.41c-6.662,-13.147 -9.992,-28.352 -9.992,-45.615Zm128.509,0.301c-0,-12.846 -3.638,-22.983 -10.914,-30.41c-7.276,-7.426 -16.141,-11.14 -26.594,-11.14c-10.453,0 -19.317,3.663 -26.593,10.99c-7.276,7.326 -10.914,17.413 -10.914,30.259c-0,12.847 3.638,23.033 10.914,30.561c7.276,7.527 16.14,11.29 26.593,11.29c10.453,0 19.318,-3.713 26.594,-11.14c7.276,-7.427 10.914,-17.563 10.914,-30.41Z" style="fill:#fff;fill-rule:nonzero;"/><path d="M1208.9,226.003c6.149,-9.234 13.835,-16.51 23.058,-21.829c9.223,-5.319 19.471,-7.979 30.744,-7.979l0,54.497l-14.45,0c-13.117,0 -22.955,2.76 -29.514,8.28c-6.558,5.52 -9.838,15.205 -9.838,29.055l0,77.982l-52.571,-0l-0,-168.007l52.571,-0l0,28.001Z" style="fill:#fff;fill-rule:nonzero;"/><path d="M1314.35,180.539c-9.224,-0 -16.756,-2.66 -22.597,-7.979c-5.841,-5.32 -8.762,-11.893 -8.762,-19.722c-0,-8.029 2.921,-14.703 8.762,-20.022c5.841,-5.319 13.373,-7.979 22.597,-7.979c9.018,0 16.447,2.66 22.289,7.979c5.841,5.319 8.762,11.993 8.762,20.022c-0,7.829 -2.921,14.402 -8.762,19.722c-5.842,5.319 -13.271,7.979 -22.289,7.979Zm26.132,17.463l-0,168.007l-52.572,-0l-0,-168.007l52.572,-0Z" style="fill:#fff;fill-rule:nonzero;"/><path d="M1464.69,240.756l-28.284,0l0,125.253l-52.572,-0l0,-125.253l-19.061,0l0,-42.754l19.061,-0l0,-4.818c0,-20.674 6.047,-36.381 18.139,-47.12c12.093,-10.739 29.822,-16.108 53.187,-16.108c3.894,-0 6.763,0.1 8.608,0.301l0,43.357c-10.043,-0 -17.114,1.662 -21.213,4.986c-4.099,3.325 -6.149,9.29 -6.149,17.896l0,1.506l28.284,-0l0,42.754Z" style="fill:#fff;fill-rule:nonzero;"/><path d="M1575.36,240.756l-28.284,0l-0,125.253l-52.572,-0l-0,-125.253l-19.061,0l-0,-42.754l19.061,-0l-0,-4.818c-0,-20.674 6.046,-36.381 18.139,-47.12c12.092,-10.739 29.821,-16.108 53.186,-16.108c3.895,-0 6.764,0.1 8.609,0.301l-0,43.357c-10.043,-0 -17.114,1.662 -21.214,4.986c-4.099,3.325 -6.148,9.29 -6.148,17.896l-0,1.506l28.284,-0l-0,42.754Z" style="fill:#fff;fill-rule:nonzero;"/><path d="M1743.08,368.117c-15.811,-0 -29.98,-2.51 -42.508,-7.528c-12.525,-5.018 -22.536,-12.445 -30.033,-22.28c-7.494,-9.836 -11.241,-21.679 -11.241,-35.529l55.647,0c0.819,7.829 3.586,13.8 8.3,17.915c4.714,4.115 10.863,6.172 18.447,6.172c7.788,0 13.937,-1.756 18.446,-5.269c4.509,-3.512 6.763,-8.38 6.763,-14.602c0,-5.219 -1.793,-9.535 -5.38,-12.947c-3.586,-3.413 -7.993,-6.223 -13.22,-8.431c-5.226,-2.208 -12.656,-4.717 -22.289,-7.527c-13.937,-4.215 -25.312,-8.43 -34.125,-12.646c-8.814,-4.215 -16.397,-10.437 -22.751,-18.667c-6.353,-8.23 -9.53,-18.969 -9.53,-32.216c-0,-19.672 7.276,-35.077 21.828,-46.218c14.552,-11.14 33.511,-16.71 56.876,-16.71c23.775,0 42.939,5.57 57.491,16.71c14.552,11.141 22.34,26.647 23.365,46.519l-57.184,-0c0,-6.825 -2.373,-12.194 -7.119,-16.109c-4.743,-3.914 -10.829,-5.871 -18.259,-5.871c-6.395,0 -11.552,1.656 -15.472,4.968c-3.92,3.312 -5.88,8.079 -5.88,14.302c-0,6.824 3.279,12.144 9.838,15.957c6.559,3.814 16.807,7.929 30.744,12.345c13.937,4.617 25.261,9.033 33.972,13.248c8.71,4.215 16.242,10.337 22.596,18.366c6.354,8.029 9.531,18.367 9.531,31.012c-0,12.044 -3.132,22.984 -9.396,32.819c-6.261,9.836 -15.347,17.664 -27.257,23.485c-11.91,5.821 -25.976,8.732 -42.2,8.732Z" style="fill:#fff;fill-rule:nonzero;"/><path d="M1932.3,368.418c-16.807,-0 -31.922,-3.513 -45.347,-10.538c-13.425,-7.026 -23.98,-17.062 -31.666,-30.109c-7.686,-13.047 -11.529,-28.303 -11.529,-45.766c-0,-17.262 3.894,-32.467 11.682,-45.615c7.789,-13.147 18.447,-23.234 31.974,-30.259c13.527,-7.025 28.694,-10.538 45.501,-10.538c16.806,-0 31.973,3.513 45.5,10.538c13.528,7.025 24.185,17.112 31.974,30.259c7.788,13.148 11.682,28.353 11.682,45.615c0,17.263 -3.945,32.468 -11.836,45.615c-7.891,13.148 -18.651,23.234 -32.281,30.26c-13.63,7.025 -28.848,10.538 -45.654,10.538Zm-0,-44.561c10.043,-0 18.6,-3.614 25.671,-10.84c7.071,-7.226 10.606,-17.563 10.606,-31.012c0,-13.448 -3.433,-23.786 -10.299,-31.012c-6.866,-7.226 -15.32,-10.839 -25.363,-10.839c-10.248,0 -18.754,3.563 -25.518,10.689c-6.763,7.125 -10.145,17.513 -10.145,31.162c-0,13.449 3.33,23.786 9.992,31.012c6.661,7.226 15.013,10.84 25.056,10.84Z" style="fill:#fff;fill-rule:nonzero;"/><path d="M2039.59,282.005c0,-17.463 3.638,-32.718 10.914,-45.765c7.276,-13.047 17.422,-23.084 30.437,-30.109c13.015,-7.025 27.925,-10.538 44.732,-10.538c21.521,-0 39.506,5.52 53.955,16.56c14.45,11.04 23.929,26.596 28.438,46.668l-55.953,0c-4.715,-12.846 -13.835,-19.269 -27.362,-19.269c-9.633,-0 -17.319,3.663 -23.058,10.99c-5.739,7.326 -8.608,17.814 -8.608,31.463c-0,13.65 2.869,24.138 8.608,31.464c5.739,7.326 13.425,10.99 23.058,10.99c13.527,-0 22.647,-6.424 27.362,-19.27l55.953,0c-4.509,19.671 -14.04,35.127 -28.592,46.368c-14.552,11.24 -32.485,16.861 -53.801,16.861c-16.807,-0 -31.717,-3.513 -44.732,-10.538c-13.015,-7.026 -23.161,-17.062 -30.437,-30.109c-7.276,-13.047 -10.914,-28.303 -10.914,-45.766Z" style="fill:#fff;fill-rule:nonzero;"/><path d="M2262.49,180.539c-9.224,-0 -16.756,-2.66 -22.597,-7.979c-5.841,-5.32 -8.762,-11.893 -8.762,-19.722c-0,-8.029 2.921,-14.703 8.762,-20.022c5.841,-5.319 13.373,-7.979 22.597,-7.979c9.018,0 16.447,2.66 22.289,7.979c5.841,5.319 8.762,11.993 8.762,20.022c-0,7.829 -2.921,14.402 -8.762,19.722c-5.842,5.319 -13.271,7.979 -22.289,7.979Zm26.132,17.463l-0,168.007l-52.572,-0l-0,-168.007l52.572,-0Z" style="fill:#fff;fill-rule:nonzero;"/><path d="M2316.29,281.704c0,-17.262 3.331,-32.417 9.992,-45.464c6.661,-13.047 15.73,-23.084 27.208,-30.109c11.478,-7.025 24.288,-10.538 38.43,-10.538c12.092,-0 22.699,2.409 31.819,7.226c9.121,4.817 16.141,11.14 21.06,18.969l-0,-23.786l52.572,-0l-0,168.007l-52.572,-0l-0,-23.786c-5.124,7.828 -12.246,14.151 -21.367,18.968c-9.121,4.818 -19.727,7.227 -31.82,7.227c-13.937,-0 -26.644,-3.563 -38.122,-10.689c-11.478,-7.126 -20.547,-17.262 -27.208,-30.41c-6.661,-13.147 -9.992,-28.352 -9.992,-45.615Zm128.509,0.301c-0,-12.846 -3.638,-22.983 -10.914,-30.41c-7.276,-7.426 -16.141,-11.14 -26.593,-11.14c-10.453,0 -19.318,3.663 -26.594,10.99c-7.276,7.326 -10.914,17.413 -10.914,30.259c0,12.847 3.638,23.033 10.914,30.561c7.276,7.527 16.141,11.29 26.594,11.29c10.452,0 19.317,-3.713 26.593,-11.14c7.276,-7.427 10.914,-17.563 10.914,-30.41Z" style="fill:#fff;fill-rule:nonzero;"/><rect height="222.805" style="fill:#fff;fill-rule:nonzero;" width="52.572" x="2535.49" y="143.204"/></g>
</g></svg>