<?xml version="1.0" encoding="UTF-8" standalone="no"?><!DOCTYPE svg PUBLIC "-//W3C//DTD SVG 1.1//EN" "http://www.w3.org/Graphics/SVG/1.1/DTD/svg11.dtd"><svg width="2955px" height="718px" version="1.1" xmlns="http://www.w3.org/2000/svg" xmlns:xlink="http://www.w3.org/1999/xlink" xml:space="preserve" xmlns:serif="http://www.serif.com/" style="fill-rule:evenodd;clip-rule:evenodd;stroke-linejoin:round;stroke-miterlimit:2;"><g id="SPARE-SHAPES" serif:id="SPARE SHAPES"></g><g id="IMAGE-BLUE-GOLDTRIM" serif:id="IMAGE BLUE GOLDTRIM"></g><g id="IMAGE-BLUE-WHITELINE" serif:id="IMAGE BLUE WHITELINE"></g><g id="ORIGINAL"></g><rect id="Artboard1" x="-1033.98" y="-2740.47" width="7804.5" height="5587.52" style="fill:none;"/><g id="BLUE_ON_WHITE-HORIZONTAL" serif:id="BLUE_ON_WHITE HORIZONTAL"><rect x="0" y="0" width="2954.05" height="717.411" style="fill:#0e2841;"/><path d="M683.872,375.102c0.079,0.081 0.168,0.177 0.266,0.286c0.748,-0.178 1.435,-0.341 2.05,-0.489c0.37,-0.088 5.549,-0.56 6.223,-0.467l3.234,0.444c0.277,0.038 7.084,2.574 11.864,5.162c9.554,5.172 22.016,14.067 27.369,19.193c1.463,1.4 2.598,2.68 3.411,3.733c0.223,0.289 0.427,0.591 0.611,0.905c0,0 2.2,3.819 2.357,4.207c4.249,10.556 19.862,64.252 24.324,80.686c2.265,8.343 0.912,15.918 -0.288,18.691c-0.222,0.513 -0.493,1.002 -0.81,1.462l-2.175,3.15c-0.547,0.794 -1.225,1.489 -2.004,2.056l-2.823,2.056c-0.283,0.205 -0.578,0.394 -0.883,0.563c-2.971,1.65 -9.54,3.981 -9.54,3.981c-0.024,0.008 -0.048,0.016 -0.072,0.024c-0.092,0.031 -0.184,0.061 -0.276,0.091c-0.042,0.013 -0.084,0.026 -0.126,0.039c-0,0 -61.265,18.556 -73.48,22.255c-1.224,0.37 -1.957,0.592 -2.088,0.632l-0.007,0.002c0,-0 -5.387,1.567 -8.942,1.673c-0.26,0.008 -0.52,0.003 -0.78,-0.013l-2.439,-0.15c-0.613,-0.037 -1.22,-0.141 -1.811,-0.309l-2.466,-0.7c-0.544,-0.155 -1.072,-0.363 -1.575,-0.622l-2.212,-1.137c-0.579,-0.298 -1.122,-0.661 -1.619,-1.082l-2.224,-1.884c-0.563,-0.478 -1.062,-1.026 -1.484,-1.631l-1.241,-1.778c-17.148,6.256 -38.501,11.23 -65.945,15.742c-4.674,6.324 -12.164,12.596 -22.836,17.907c-26.373,13.123 -76.196,23.004 -139.596,23.537c-57.421,0.483 -106.796,-7.733 -133.828,-19.439c-14.959,-6.479 -24.831,-14.327 -29.751,-21.494c-0.053,-0.076 -0.104,-0.151 -0.155,-0.227c-42.731,-7.096 -76.373,-17.49 -94.632,-28.08c-19.302,-11.195 -27.116,-25.114 -27.116,-38.39c-0,-11.113 6.403,-27.528 20.59,-37.546c17.421,-12.301 48.573,-23.544 91.855,-31.555c-33.387,-47.77 -71.45,-132.302 -69.345,-246.49c0.009,-0.449 0.034,-0.894 0.075,-1.325c-0.071,-1.362 0.014,-2.753 0.27,-4.152c1.891,-10.318 13.257,-21.848 32.143,-29.807c27.761,-11.698 84.722,-19.712 144.381,-22.917c22.489,-1.208 45.96,-1.775 69.365,-1.684c22.502,0.087 44.942,0.783 66.391,2.066c59.776,3.574 112.014,12.058 138.028,24.025c19.105,8.79 29.45,19.749 28.057,33.81c-0.045,0.457 0.022,0.906 0.041,1.342c25.999,-11.887 57.745,-14.637 82.894,1.619c11.235,7.262 20.883,19.717 26.44,35.877c11.179,32.51 6.051,86.847 -37.003,129.363c-14.79,14.605 -27.886,26.106 -41.379,35.327c0.267,0.508 0.505,0.996 0.712,1.462Zm-53.469,25.473c-14.103,5.303 -27.575,8.981 -40.587,12.317c-1.21,1.571 -2.431,2.925 -3.666,4.176c13.278,2.409 25.049,4.934 36.009,7.956c2.375,-8.842 5.709,-18.546 8.244,-24.449Zm-25.412,-67.93c13.436,-4.556 46.581,-22.29 66.099,-42.295c14.922,-15.295 23.367,-38.034 19.343,-42.934c-3.775,-4.598 -11.184,-3.489 -16.687,-0.276c-10.324,6.026 -26.598,24.723 -31.807,29.81c-14.053,13.726 -16.418,17.585 -19.373,23.257c-9.69,18.597 -17.575,32.438 -17.575,32.438Z" style="fill:#fff;"/><path d="M649.27,521.807c-18.645,8.081 -45.148,15.067 -78.625,20.447c-1.057,1.799 -2.367,3.568 -3.93,5.293c-4.046,4.577 -9.938,8.997 -17.755,12.906c-25.659,12.83 -74.175,22.232 -135.857,22.753c-55.897,0.472 -101.042,-8.381 -127.357,-19.832c-13.035,-5.673 -21.81,-12.301 -26.098,-18.576c-0.111,-0.163 -0.219,-0.325 -0.325,-0.488c-0.047,-0.073 -0.097,-0.148 -0.148,-0.225c-0.705,-0.848 -1.367,-1.709 -1.984,-2.581c-42.899,-6.921 -73.91,-16.122 -92.09,-26.718c-15.813,-9.216 -22.853,-20.212 -22.853,-31.141c-0,-9.116 5.389,-18.471 16.97,-26.689c18.577,-13.181 55.112,-24.789 102.946,-32.633c-33.724,-44.341 -78.077,-130.8 -76.022,-250.707c-0.046,-0.522 -0.069,-1.043 -0.069,-1.563l0.13,-1.385l0.006,-0.274c0.01,-0.498 0.061,-0.994 0.15,-1.484c0.006,-0.03 0.012,-0.06 0.017,-0.09c0.943,-5.01 3.919,-9.957 9.315,-14.389c5.793,-4.758 14.878,-9.211 26.714,-13.02c41.241,-13.271 118.665,-20.194 195.395,-19.896c76.505,0.297 152.285,7.8 190.879,21.313c11.388,3.987 19.829,8.672 24.859,13.583c4.917,4.802 7.173,10.077 7.216,15.461c0.096,5.753 0.097,11.472 0.006,17.154c24.61,-15.824 61.37,-23.129 87.841,-6.019c9.826,6.351 18.133,17.341 22.993,31.474c10.423,30.312 5.219,75.853 -34.924,115.494c-16.804,16.594 -32.677,29.073 -47.779,38.698c2.529,3.062 4.348,5.827 5.183,7.938c0.938,2.372 2.237,6.529 3.606,11.231c3.346,-0.822 6.261,-1.504 8.344,-2.003l3.066,-0.312l3.234,0.445c2.449,0.585 5.994,2.064 9.957,4.21c8.902,4.818 20.537,13.072 25.525,17.848c1.093,1.046 1.949,1.995 2.556,2.782l1.803,3.08c4.199,10.429 17.595,58.494 22.004,74.731c1.582,5.826 0.955,11.116 0.118,13.052l-2.175,3.151l-2.823,2.055c-2.548,1.415 -8.197,3.379 -8.197,3.379c-0.047,0.016 -0.096,0.032 -0.144,0.048c0,-0 -71.635,22.908 -71.583,22.891c0,-0 -4.037,1.227 -6.708,1.307l-2.439,-0.15l-2.466,-0.701l-2.212,-1.137l-2.223,-1.885l-1.701,-2.436c-0.443,-0.834 -0.961,-2.086 -1.642,-4.199c-0.218,-0.675 -0.453,-1.407 -0.704,-2.191Zm-373.165,-80.754c-42.573,6.219 -76.732,15.152 -97.445,25.936c-6.187,3.221 -11.063,6.528 -14.33,10.057c-2.018,2.179 -3.412,4.279 -3.412,6.599c-0,5.728 5.297,10.18 13.585,15.011c17.406,10.144 47.57,18.492 89.298,24.993l2.285,0.639l0.961,0.56c79.019,12.526 215.356,12.683 293.455,0.349c0.672,-0.274 1.382,-0.472 2.114,-0.583c34.996,-5.337 62.305,-12.27 80.735,-20.592l-13.57,-45.142c-19.654,-6.962 -45.399,-12.877 -75.452,-17.4c-3.367,2.841 -10.386,8.662 -18.522,14.812c-1.631,1.304 -3.277,2.572 -4.938,3.804c12.988,3.219 22.721,7.012 28.311,10.949c6.369,4.488 8.842,9.802 8.842,14.667l-0.302,2.957l-0.842,2.739c-0.871,2.109 -2.295,4.246 -4.409,6.28c-3.322,3.196 -8.899,6.442 -16.602,9.25c-24.482,8.924 -73.783,15.221 -130.587,15.221c-56.805,0 -106.106,-6.297 -130.588,-15.221c-7.702,-2.808 -13.28,-6.054 -16.601,-9.25c-2.115,-2.034 -3.539,-4.171 -4.409,-6.28l-0.842,-2.739l-0.303,-2.957c0,-4.87 2.479,-10.192 8.866,-14.683c5.322,-3.743 14.388,-7.353 26.436,-10.464c-3.755,-2.826 -7.392,-5.776 -11.02,-9.025c-3.133,-2.693 -6.751,-6.196 -10.714,-10.487Zm291.191,-16.421c23.879,3.973 44.855,8.852 62.044,14.396c1.976,-10.195 6.898,-25.054 10.141,-32.31c0.95,-2.123 1.817,-3.72 2.439,-4.651l2.885,-3.018c3.089,-2.162 8.692,-4.324 14.907,-6.285c-1.138,-3.893 -2.205,-7.276 -3,-9.288c-0.57,-1.44 -2.157,-3.227 -4.184,-5.278c-25.089,13.263 -48.062,19.423 -69.732,24.932c-4.909,7.601 -10.082,14.779 -15.5,21.502Zm-45.191,18.714c16.989,-13.11 32.286,-30.477 45.53,-51.16c1.32,-2.061 2.619,-4.154 3.897,-6.279c2.546,-4.386 5.771,-10.298 8.963,-16.088c21.411,-41.506 35.542,-92.945 40.081,-149.409c0.139,-1.816 0.267,-3.518 0.379,-5.056c0.165,-2.353 0.313,-4.714 0.444,-7.084c-0.042,-0.699 -0.005,-1.402 0.111,-2.096c0.196,-3.838 0.348,-7.696 0.455,-11.573c-3.487,1.805 -7.505,3.556 -12.036,5.214c-36.874,13.497 -111.143,22.923 -196.701,22.923c-85.558,-0 -159.826,-9.426 -196.701,-22.923c-4.338,-1.587 -8.207,-3.26 -11.589,-4.985c3.4,114.615 50.518,194.238 80.698,228.995c0.359,0.301 0.698,0.632 1.015,0.992c4.369,4.971 8.554,9.167 12.753,12.917c0.08,0.068 0.161,0.136 0.241,0.203c65.892,55.083 157.793,35.297 183.045,26.831c9.63,-3.229 18.903,-7.694 27.772,-13.278c3.946,-2.545 7.892,-5.341 11.643,-8.144Zm-14.368,31.112c-6.225,3.15 -12.6,5.828 -19.112,8.012c-23.52,7.886 -99.601,24.182 -166.323,-7.935c-16.722,2.774 -29.79,6.176 -37.538,10.205c-0.457,0.238 -0.941,0.532 -1.408,0.838c2.014,1.201 4.93,2.798 7.73,3.819c23.275,8.484 70.19,14.092 124.194,14.092c54.004,-0 100.918,-5.608 124.193,-14.092c2.801,-1.021 5.717,-2.618 7.731,-3.819c-0.46,-0.302 -0.936,-0.592 -1.386,-0.826c-7.722,-4.023 -20.751,-7.421 -37.425,-10.194c-0.242,-0.04 -0.458,-0.073 -0.656,-0.1Zm75.84,-72.546c0.361,-0.314 0.555,-0.537 0.571,-0.554c0.151,-0.155 0.294,-0.311 0.429,-0.466l-0.831,0.755c-0.056,0.088 -0.112,0.177 -0.169,0.265Zm2.954,-4.624l-1.47,3.003c0.761,-1.02 1.216,-2.036 1.47,-3.003Zm27.487,-57.599c17.227,-7.119 45.19,-20.938 65.925,-42.191c17.107,-17.534 23.29,-36.062 22.377,-50.031c-0.462,-7.067 -2.489,-12.844 -6.42,-15.385c-4.001,-2.586 -8.987,-2.83 -14.023,-2.003c-9.287,1.524 -18.813,6.843 -25.099,12.982c-9.533,9.31 -16.919,17.25 -22.669,24.048l-0.828,0.679c-4.544,25.501 -11.048,49.628 -19.263,71.901Zm-29.898,61.369l0.119,-0.148c0.61,-0.922 1.396,-2.179 2.306,-3.679c0.008,-0.031 0.016,-0.062 0.024,-0.093l-0.024,0.018c-0.646,1.06 -1.298,2.112 -1.955,3.156c-0.031,0.056 -0.062,0.113 -0.095,0.169c-0.018,0.031 -0.05,0.076 -0.095,0.134c-0.093,0.148 -0.187,0.296 -0.28,0.443Zm80.43,9.341c-2.927,0.945 -5.537,1.952 -7.491,3.004c-1.859,4.718 -10.164,26.193 -9.919,32.564c0.343,8.954 13.52,50.3 19.39,68.537l68.605,-21.939l0.684,-0.27c-4.429,-16.268 -16.161,-58.548 -20.54,-70.309l-26.804,-17.551c-1.656,0.374 -3.662,0.81 -5.865,1.301c1.072,4.055 1.857,7.123 2.078,8.017c1.236,5.001 -1.822,10.066 -6.824,11.301c-5.001,1.236 -10.065,-1.821 -11.301,-6.823c-0.213,-0.86 -0.976,-3.874 -2.013,-7.832Zm-25.393,-188.243c-0.311,4.039 -0.67,8.581 -1.027,13.106c1.785,-1.8 3.651,-3.652 5.603,-5.558c8.783,-8.579 22.142,-15.918 35.12,-18.049c9.809,-1.61 19.388,-0.29 27.182,4.747c6.121,3.957 11.159,11.12 13.534,20.751c4.528,18.367 -0.561,47.04 -26.262,73.383c-14.782,15.151 -32.894,26.882 -48.966,35.401c3.367,2.719 7.182,5.895 10.897,9.169c15.213,-9.271 31.257,-21.572 48.313,-38.415c28.884,-28.523 37.019,-60.41 33.131,-85.005c-2.358,-14.92 -9.018,-27.054 -18.216,-32.999c-23.166,-14.973 -56.322,-4.309 -74.706,11.267c-0.411,0.348 -2.224,1.611 -3.908,2.77c-0.074,1.102 -0.164,2.368 -0.267,3.764c-0.132,1.895 -0.275,3.784 -0.428,5.668Zm-13.515,132.797c-8.627,3.771 -15.486,6.251 -19.152,7.497c-1.5,2.683 -5.615,10.029 -10.001,17.718c13.133,-3.753 26.833,-8.426 41.276,-15.487c-4.917,-4.139 -9.486,-7.73 -12.123,-9.728Zm-4.197,-184.461c-0.597,-0.693 -1.54,-1.317 -2.526,-2.074c-3.804,-2.926 -9.408,-5.517 -16.409,-7.968c-37.354,-13.079 -110.737,-19.978 -184.783,-20.265c-74.443,-0.289 -149.59,6.123 -189.603,18.999c-7.723,2.485 -14.025,5.159 -18.526,8.161c-2.27,1.514 -4.161,2.756 -4.744,4.438l-0.005,0.192c0.158,0.239 0.413,0.614 0.626,0.849c0.54,0.598 1.2,1.178 1.958,1.76c3.557,2.735 8.831,5.254 15.512,7.699c35.663,13.053 107.536,21.785 190.283,21.785c82.748,-0 154.621,-8.732 190.284,-21.785c6.68,-2.445 11.954,-4.964 15.512,-7.699c0.757,-0.582 1.418,-1.162 1.958,-1.76c0.23,-0.255 0.511,-0.673 0.662,-0.907c-0.104,-0.476 -0.17,-0.952 -0.199,-1.425Zm-323.737,377.079c6.878,2.719 14.647,5.056 23.075,7.051c39.621,9.379 93.337,11.057 139.984,6.618c26.621,-2.533 50.924,-7.024 68.824,-13.343c-69.084,6.875 -162.411,6.751 -231.883,-0.326Zm274.903,-17.391c-0.637,-1.497 -1.33,-2.234 -1.788,-2.612c0.102,0.106 0.203,0.214 0.301,0.326c0.25,0.282 0.48,0.577 0.69,0.883l0.103,0.114l0.078,0.159c0.232,0.364 0.438,0.741 0.616,1.13Z" style="fill:#0e2841;"/><g><path d="M611.105,283.562c0,-0 -2.81,12.905 -6.248,24.765c-2.502,8.631 -7.851,23.639 -7.851,23.639c-0,0 -36.156,11.221 -92.072,15.479c-44.795,3.411 -132.432,2.098 -132.432,2.098l-0,-44.168c-0,-0 94.007,1.676 138.77,-2.478c48.273,-4.479 99.833,-19.335 99.833,-19.335Z" style="fill:#ff0500;"/><path d="M621.973,194.608c-0,-0 -0.515,15.618 -1.205,24.341c-0.678,8.552 -2.357,22.788 -2.357,22.788c0,0 -16.824,6.466 -49.231,12.789c-18.618,3.632 -43.476,5.672 -70.149,7.442c-49.246,3.268 -126.529,2.632 -126.529,2.632l-0.017,-42.569c0,-0 30.206,0.585 59.328,0.271c24.43,-0.264 52.074,-1.654 73.618,-3.396c21.349,-1.727 45.296,-4.834 65.372,-8.754c35.126,-6.859 51.17,-15.544 51.17,-15.544Z" style="fill:#ff0500;"/><path d="M577.187,376.415c-0,0 -6.674,11.139 -14.542,23.484c-6.072,9.528 -20.637,25.411 -20.637,25.411c0,-0 -41.272,5.487 -72.73,6.24c-34.402,0.823 -96.606,0.455 -96.606,0.455l0.086,-42.321c-0,0 70.674,1.07 102.639,-0.651c55.602,-2.994 101.79,-12.618 101.79,-12.618Z" style="fill:#ff0500;"/><path d="M372.5,222.028l0.249,209.89c0,0 -24.989,-1.751 -44.123,-2.731c-15.731,-0.806 -41.152,-3.066 -41.152,-3.066c0,-0 -15.205,-16.224 -31.397,-43.639c-9.169,-15.524 -18.368,-34.852 -26.01,-56.323c-4.112,-11.553 -7.625,-22.121 -10.506,-32.59c-16.108,-58.54 -14.594,-98.756 -14.594,-98.756c-0,-0 23.408,13.412 88.507,20.979c45.973,5.345 79.026,6.236 79.026,6.236Z" style="fill:#002f62;"/><clipPath id="_clip1"><path d="M372.5,222.028l0.249,209.89c0,0 -24.989,-1.751 -44.123,-2.731c-15.731,-0.806 -41.152,-3.066 -41.152,-3.066c0,-0 -15.205,-16.224 -31.397,-43.639c-9.169,-15.524 -18.368,-34.852 -26.01,-56.323c-4.112,-11.553 -7.625,-22.121 -10.506,-32.59c-16.108,-58.54 -14.594,-98.756 -14.594,-98.756c-0,-0 23.408,13.412 88.507,20.979c45.973,5.345 79.026,6.236 79.026,6.236Z"/></clipPath><g clip-path="url(#_clip1)"><path d="M256.42,228.838l6.741,20.745l21.813,0l-17.647,12.822l6.74,20.745l-17.647,-12.821l-17.647,12.821l6.741,-20.745l-17.647,-12.822l21.813,0l6.74,-20.745Zm67.131,21.402l6.741,20.745l21.812,0l-17.647,12.821l6.741,20.746l-17.647,-12.822l-17.647,12.822l6.741,-20.746l-17.647,-12.821l21.812,0l6.741,-20.745Zm3.387,80.372l6.741,20.745l21.813,0l-17.647,12.821l6.74,20.746l-17.647,-12.822l-17.647,12.822l6.741,-20.746l-17.647,-12.821l21.813,0l6.74,-20.745Zm-53.119,-34.951l6.74,20.745l21.813,0l-17.647,12.821l6.741,20.746l-17.647,-12.822l-17.647,12.822l6.74,-20.746l-17.647,-12.821l21.813,0l6.741,-20.745Z" style="fill:#fff;"/></g></g><g><path d="M1051.49,291.846l-0,41.249l-57.184,0l0,170.115l-52.571,0l-0,-170.115l-57.184,0l0,-41.249l166.939,0Z" style="fill:#fff;fill-rule:nonzero;"/><path d="M1067.48,418.905c-0,-17.262 3.33,-32.417 9.991,-45.464c6.661,-13.047 15.731,-23.083 27.208,-30.109c11.478,-7.025 24.288,-10.538 38.43,-10.538c12.093,0 22.699,2.409 31.82,7.226c9.121,4.818 16.14,11.141 21.059,18.969l0,-23.786l52.572,-0l0,168.007l-52.572,0l0,-23.786c-5.124,7.828 -12.246,14.151 -21.367,18.969c-9.12,4.817 -19.727,7.226 -31.819,7.226c-13.937,-0 -26.645,-3.563 -38.123,-10.689c-11.477,-7.126 -20.547,-17.262 -27.208,-30.41c-6.661,-13.147 -9.991,-28.352 -9.991,-45.615Zm128.508,0.301c0,-12.846 -3.638,-22.983 -10.914,-30.409c-7.276,-7.427 -16.14,-11.141 -26.593,-11.141c-10.453,0 -19.317,3.664 -26.593,10.99c-7.276,7.327 -10.914,17.413 -10.914,30.259c-0,12.847 3.638,23.034 10.914,30.561c7.276,7.527 16.14,11.291 26.593,11.291c10.453,-0 19.317,-3.714 26.593,-11.141c7.276,-7.426 10.914,-17.563 10.914,-30.41Z" style="fill:#fff;fill-rule:nonzero;"/><path d="M1339.26,363.204c6.149,-9.233 13.835,-16.51 23.058,-21.829c9.223,-5.319 19.471,-7.979 30.744,-7.979l-0,54.497l-14.45,0c-13.117,0 -22.955,2.76 -29.514,8.28c-6.558,5.52 -9.838,15.205 -9.838,29.055l0,77.982l-52.572,0l0,-168.007l52.572,-0l0,28.001Z" style="fill:#fff;fill-rule:nonzero;"/><path d="M1444.71,317.74c-9.223,-0 -16.755,-2.66 -22.596,-7.979c-5.842,-5.319 -8.762,-11.893 -8.762,-19.721c-0,-8.029 2.92,-14.704 8.762,-20.023c5.841,-5.319 13.373,-7.979 22.596,-7.979c9.018,0 16.448,2.66 22.289,7.979c5.842,5.319 8.762,11.994 8.762,20.023c0,7.828 -2.92,14.402 -8.762,19.721c-5.841,5.319 -13.271,7.979 -22.289,7.979Zm26.132,17.463l0,168.007l-52.571,0l-0,-168.007l52.571,-0Z" style="fill:#fff;fill-rule:nonzero;"/><path d="M1595.04,377.957l-28.284,0l-0,125.253l-52.572,0l0,-125.253l-19.061,0l-0,-42.754l19.061,-0l0,-4.818c0,-20.674 6.046,-36.381 18.139,-47.12c12.092,-10.739 29.821,-16.108 53.187,-16.108c3.894,-0 6.763,0.1 8.608,0.301l-0,43.357c-10.043,-0 -17.114,1.662 -21.213,4.986c-4.1,3.325 -6.149,9.29 -6.149,17.896l-0,1.506l28.284,-0l0,42.754Z" style="fill:#fff;fill-rule:nonzero;"/><path d="M1705.72,377.957l-28.285,0l0,125.253l-52.571,0l-0,-125.253l-19.062,0l0,-42.754l19.062,-0l-0,-4.818c-0,-20.674 6.046,-36.381 18.138,-47.12c12.093,-10.739 29.822,-16.108 53.187,-16.108c3.894,-0 6.764,0.1 8.608,0.301l0,43.357c-10.043,-0 -17.114,1.662 -21.213,4.986c-4.099,3.325 -6.149,9.29 -6.149,17.896l0,1.506l28.285,-0l-0,42.754Z" style="fill:#fff;fill-rule:nonzero;"/><path d="M1873.43,505.318c-15.811,-0 -29.98,-2.509 -42.508,-7.527c-12.525,-5.019 -22.536,-12.445 -30.033,-22.281c-7.494,-9.836 -11.241,-21.678 -11.241,-35.528l55.646,-0c0.82,7.828 3.587,13.799 8.301,17.914c4.714,4.115 10.863,6.173 18.446,6.173c7.789,-0 13.937,-1.757 18.447,-5.269c4.509,-3.513 6.763,-8.381 6.763,-14.603c0,-5.219 -1.793,-9.535 -5.38,-12.947c-3.587,-3.412 -7.993,-6.222 -13.22,-8.43c-5.226,-2.208 -12.656,-4.718 -22.289,-7.528c-13.937,-4.215 -25.312,-8.43 -34.126,-12.645c-8.813,-4.216 -16.396,-10.438 -22.75,-18.668c-6.354,-8.23 -9.531,-18.968 -9.531,-32.216c0,-19.671 7.276,-35.077 21.829,-46.217c14.552,-11.141 33.51,-16.711 56.875,-16.711c23.776,0 42.939,5.57 57.491,16.711c14.552,11.14 22.341,26.646 23.365,46.518l-57.183,-0c0,-6.825 -2.373,-12.194 -7.119,-16.108c-4.743,-3.915 -10.829,-5.872 -18.259,-5.872c-6.395,0 -11.553,1.656 -15.473,4.968c-3.919,3.312 -5.879,8.08 -5.879,14.302c-0,6.825 3.279,12.144 9.838,15.958c6.558,3.813 16.806,7.928 30.743,12.344c13.938,4.617 25.261,9.033 33.972,13.248c8.711,4.215 16.243,10.338 22.597,18.367c6.354,8.029 9.53,18.366 9.53,31.012c0,12.043 -3.132,22.983 -9.396,32.818c-6.26,9.836 -15.346,17.664 -27.256,23.485c-11.91,5.821 -25.977,8.732 -42.2,8.732Z" style="fill:#fff;fill-rule:nonzero;"/><path d="M2062.66,505.619c-16.806,-0 -31.922,-3.513 -45.347,-10.538c-13.424,-7.026 -23.98,-17.062 -31.666,-30.109c-7.686,-13.047 -11.529,-28.302 -11.529,-45.766c0,-17.262 3.895,-32.467 11.683,-45.614c7.789,-13.148 18.446,-23.234 31.974,-30.26c13.527,-7.025 28.694,-10.538 45.5,-10.538c16.807,0 31.974,3.513 45.501,10.538c13.527,7.026 24.185,17.112 31.974,30.26c7.788,13.147 11.682,28.352 11.682,45.614c0,17.263 -3.945,32.468 -11.836,45.615c-7.891,13.148 -18.651,23.234 -32.281,30.26c-13.63,7.025 -28.848,10.538 -45.655,10.538Zm0,-44.561c10.043,-0 18.6,-3.613 25.671,-10.839c7.072,-7.227 10.607,-17.564 10.607,-31.013c0,-13.448 -3.433,-23.785 -10.299,-31.012c-6.866,-7.226 -15.321,-10.839 -25.364,-10.839c-10.248,0 -18.753,3.563 -25.517,10.689c-6.764,7.126 -10.145,17.513 -10.145,31.162c-0,13.449 3.33,23.786 9.991,31.013c6.661,7.226 15.014,10.839 25.056,10.839Z" style="fill:#fff;fill-rule:nonzero;"/><path d="M2169.95,419.206c0,-17.463 3.638,-32.718 10.914,-45.765c7.276,-13.047 17.422,-23.083 30.436,-30.109c13.015,-7.025 27.926,-10.538 44.733,-10.538c21.52,0 39.505,5.52 53.955,16.56c14.449,11.04 23.929,26.596 28.438,46.669l-55.954,-0c-4.714,-12.847 -13.834,-19.27 -27.362,-19.27c-9.633,0 -17.319,3.663 -23.058,10.99c-5.738,7.326 -8.608,17.814 -8.608,31.463c0,13.65 2.87,24.138 8.608,31.464c5.739,7.327 13.425,10.99 23.058,10.99c13.528,-0 22.648,-6.423 27.362,-19.27l55.954,0c-4.509,19.671 -14.04,35.127 -28.592,46.368c-14.552,11.24 -32.486,16.861 -53.801,16.861c-16.807,-0 -31.718,-3.513 -44.733,-10.538c-13.014,-7.026 -23.16,-17.062 -30.436,-30.109c-7.276,-13.047 -10.914,-28.302 -10.914,-45.766Z" style="fill:#fff;fill-rule:nonzero;"/><path d="M2392.84,317.74c-9.223,-0 -16.755,-2.66 -22.596,-7.979c-5.842,-5.319 -8.762,-11.893 -8.762,-19.721c-0,-8.029 2.92,-14.704 8.762,-20.023c5.841,-5.319 13.373,-7.979 22.596,-7.979c9.018,0 16.448,2.66 22.289,7.979c5.842,5.319 8.762,11.994 8.762,20.023c0,7.828 -2.92,14.402 -8.762,19.721c-5.841,5.319 -13.271,7.979 -22.289,7.979Zm26.132,17.463l0,168.007l-52.571,0l-0,-168.007l52.571,-0Z" style="fill:#fff;fill-rule:nonzero;"/><path d="M2446.64,418.905c-0,-17.262 3.33,-32.417 9.992,-45.464c6.661,-13.047 15.73,-23.083 27.208,-30.109c11.477,-7.025 24.287,-10.538 38.429,-10.538c12.093,0 22.7,2.409 31.82,7.226c9.121,4.818 16.141,11.141 21.06,18.969l-0,-23.786l52.571,-0l0,168.007l-52.571,0l-0,-23.786c-5.124,7.828 -12.247,14.151 -21.367,18.969c-9.121,4.817 -19.727,7.226 -31.82,7.226c-13.937,-0 -26.645,-3.563 -38.122,-10.689c-11.478,-7.126 -20.547,-17.262 -27.208,-30.41c-6.662,-13.147 -9.992,-28.352 -9.992,-45.615Zm128.509,0.301c-0,-12.846 -3.638,-22.983 -10.914,-30.409c-7.276,-7.427 -16.141,-11.141 -26.594,-11.141c-10.453,0 -19.317,3.664 -26.593,10.99c-7.276,7.327 -10.914,17.413 -10.914,30.259c-0,12.847 3.638,23.034 10.914,30.561c7.276,7.527 16.14,11.291 26.593,11.291c10.453,-0 19.318,-3.714 26.594,-11.141c7.276,-7.426 10.914,-17.563 10.914,-30.41Z" style="fill:#fff;fill-rule:nonzero;"/><rect x="2665.85" y="280.405" width="52.572" height="222.805" style="fill:#fff;fill-rule:nonzero;"/></g></g><g id="BLUE_ON_WHITE-VERTICAL" serif:id="BLUE_ON_WHITE VERTICAL"></g><g id="BLUE_ON_WHITE-ICON" serif:id="BLUE_ON_WHITE ICON"></g><g id="FULL-COLOUR-HORIZONTAL" serif:id="FULL COLOUR HORIZONTAL"></g><g id="FULL-COLOUR-VERTICAL" serif:id="FULL COLOUR VERTICAL"></g><g id="FULL-COLOR-ICON" serif:id="FULL COLOR ICON"></g></svg>